<svg width="25" height="24" viewBox="0 0 25 24" fill="none" xmlns="http://www.w3.org/2000/svg">
<circle cx="12.5625" cy="12" r="12" fill="#2C2C2C"/>
<path d="M12.9547 7.77281C12.896 7.83134 12.8494 7.90088 12.8176 7.97746C12.7858 8.05404 12.7694 8.13614 12.7694 8.21906C12.7694 8.30198 12.7858 8.38408 12.8176 8.46065C12.8494 8.53723 12.896 8.60678 12.9547 8.66531L15.6579 11.3685L7.94042 11.3685C7.77334 11.3685 7.61309 11.4349 7.49495 11.5531C7.3768 11.6712 7.31042 11.8314 7.31042 11.9985C7.31042 12.1656 7.3768 12.3259 7.49495 12.444C7.61309 12.5622 7.77334 12.6285 7.94042 12.6285L15.6579 12.6285L12.9547 15.3328C12.8363 15.4512 12.7699 15.6117 12.7699 15.7791C12.7699 15.9464 12.8363 16.107 12.9547 16.2253C13.0731 16.3437 13.2336 16.4102 13.401 16.4102C13.5683 16.4102 13.7288 16.3437 13.8472 16.2253L17.6272 12.4453C17.6859 12.3868 17.7325 12.3172 17.7643 12.2407C17.7961 12.1641 17.8125 12.082 17.8125 11.9991C17.8125 11.9161 17.7961 11.834 17.7643 11.7575C17.7325 11.6809 17.6859 11.6113 17.6272 11.5528L13.8472 7.77281C13.7887 7.71408 13.7191 7.66747 13.6425 7.63568C13.566 7.60388 13.4839 7.58751 13.401 7.58751C13.318 7.58751 13.2359 7.60388 13.1594 7.63568C13.0828 7.66747 13.0132 7.71408 12.9547 7.77281Z" fill="black"/>
</svg>
